<?xml version="1.0" standalone="no"?>
<!DOCTYPE svg PUBLIC "-//W3C//DTD SVG 20010904//EN"
 "http://www.w3.org/TR/2001/REC-SVG-20010904/DTD/svg10.dtd">
<svg version="1.0" xmlns="http://www.w3.org/2000/svg"
 width="200.000000pt" height="200.000000pt" viewBox="0 0 200.000000 200.000000"
 preserveAspectRatio="xMidYMid meet">
<metadata>
Created by potrace 1.11, written by Peter Selinger 2001-2013
</metadata>
<g transform="translate(0.000000,200.000000) scale(0.100000,-0.100000)"
fill="#000000" stroke="none">
<path d="M503 1533 c-18 -7 -16 -38 6 -79 24 -44 16 -78 -32 -135 -53 -61 -55
-150 -6 -213 40 -50 99 -13 67 41 -9 16 -17 37 -19 48 -4 27 9 75 21 75 5 0
21 21 36 47 34 57 36 126 4 177 -25 41 -46 52 -77 39z"/>
<path d="M702 1438 c-17 -17 -15 -38 5 -61 29 -32 23 -88 -15 -132 -19 -20
-38 -48 -43 -62 -16 -42 -10 -106 14 -148 26 -47 58 -56 80 -24 14 19 14 24
-4 53 -31 51 -24 88 26 142 14 15 30 45 36 68 26 93 -48 215 -99 164z"/>
<path d="M114 883 c-13 -13 -14 -38 -10 -150 6 -162 23 -202 103 -246 l49 -26
372 -1 c410 -1 415 0 479 62 34 33 51 72 55 126 l2 33 111 -6 c60 -3 130 -8
155 -10 25 -2 97 -7 160 -10 63 -4 134 -8 156 -10 61 -5 116 24 139 71 16 34
16 42 4 78 -8 21 -27 49 -42 60 -32 24 -95 26 -472 13 -179 -6 -201 -5 -218
11 -17 15 -65 17 -523 18 -441 2 -506 0 -520 -13z m969 -166 c-2 -108 -10
-129 -56 -157 -30 -19 -53 -20 -392 -20 -339 0 -362 1 -392 20 -46 28 -56 53
-59 160 l-3 97 452 -1 452 -1 -2 -98z m721 68 c9 -9 16 -20 16 -25 0 -16 -39
-36 -67 -34 -15 1 -84 5 -153 8 -69 4 -143 9 -165 11 -22 2 -89 7 -150 10
-106 7 -124 10 -114 20 3 2 90 7 195 11 104 3 190 7 191 8 1 0 53 2 116 4 95
2 117 0 131 -13z"/>
</g>
</svg>
